<svg width="125" height="125" viewBox="0 0 125 125" fill="none" xmlns="http://www.w3.org/2000/svg">
<g filter="url(#filter0_bi_1_35)">
<path d="M100.576 80.4831C102.774 79.7881 104.628 78.7632 106.137 77.4082C107.694 75.9821 109.178 74.2012 110.589 72.0656L112.001 69.9301C112.33 69.4318 112.73 68.8267 113.201 68.1148C113.647 67.2847 114.212 66.4305 114.895 65.5521C110.932 62.7275 107.53 61.451 104.691 61.7224C101.781 61.9468 98.7109 63.651 95.481 66.8351C87.8893 74.2964 79.7769 81.7715 71.144 89.2606C69.0446 91.0438 66.9319 92.4603 64.8059 93.51C62.727 94.4885 60.3978 94.9946 57.8181 95.0284L57.6299 92.2955C57.5274 90.2842 57.5105 88.9944 57.5793 88.4261C57.8761 85.6559 58.5464 81.547 59.5901 76.0994L62.2199 58.658C63.949 46.9123 64.8558 36.7199 64.9403 28.081C65.4797 20.7656 64.0241 14.6888 60.5734 9.85049C59.4549 8.29283 58.2073 7.00784 56.8307 5.99552C55.3116 4.8891 53.5694 4.19773 51.6039 3.92142C50.3961 3.73681 49.2843 3.87133 48.2684 4.32498C47.2283 4.6604 46.4024 5.29081 45.7907 6.21624C44.9907 7.42641 44.7597 8.85919 45.0975 10.5146C45.4836 12.4065 45.9149 13.7656 46.3915 14.5921C47.7018 16.7881 48.5391 19.0805 48.9035 21.4695C49.2437 23.7403 49.418 25.9525 49.4265 28.1062C49.4349 30.2599 49.4524 31.7035 49.4789 32.4371C49.6671 38.1875 49.3105 43.8336 48.4092 49.3753C47.4837 54.7988 46.1377 61.6321 44.3713 69.8752L43.0464 76.0576C42.1632 80.1792 41.5267 83.8501 41.137 87.0704C40.7472 90.2907 40.6061 93.5219 40.7134 96.7639C41.0078 99.4135 41.9978 101.398 43.6833 102.716C44.4193 103.305 45.4624 103.739 46.8125 104.018C58.5848 106.48 68.9564 104.795 77.9272 98.9613C80.9725 96.985 84.0402 94.6654 87.1302 92.0026C90.2673 89.2685 92.1543 87.6518 92.7914 87.1523C95.622 84.7271 97.4855 83.1459 98.382 82.4087C98.6414 82.171 98.9714 81.8266 99.372 81.3753C99.8196 80.8529 100.221 80.5555 100.576 80.4831Z" fill="#1C9F8C"/>
</g>
<defs>
<filter id="filter0_bi_1_35" x="-15.8127" y="-15.6227" width="157.019" height="156.404" filterUnits="userSpaceOnUse" color-interpolation-filters="sRGB">
<feFlood flood-opacity="0" result="BackgroundImageFix"/>
<feGaussianBlur in="BackgroundImageFix" stdDeviation="8.25"/>
<feComposite in2="SourceAlpha" operator="in" result="effect1_backgroundBlur_1_35"/>
<feBlend mode="normal" in="SourceGraphic" in2="effect1_backgroundBlur_1_35" result="shape"/>
<feColorMatrix in="SourceAlpha" type="matrix" values="0 0 0 0 0 0 0 0 0 0 0 0 0 0 0 0 0 0 127 0" result="hardAlpha"/>
<feOffset dy="4"/>
<feGaussianBlur stdDeviation="2"/>
<feComposite in2="hardAlpha" operator="arithmetic" k2="-1" k3="1"/>
<feColorMatrix type="matrix" values="0 0 0 0 0.235744 0 0 0 0 0.840278 0 0 0 0 0.751238 0 0 0 1 0"/>
<feBlend mode="normal" in2="shape" result="effect2_innerShadow_1_35"/>
</filter>
</defs>
</svg>
